<svg xmlns="http://www.w3.org/2000/svg" viewBox="0 0 120 120" width="120" height="120" role="img" aria-label="ChainGuard AI logo icon">
  <defs>
    <linearGradient id="g1" x1="0" x2="1" y1="0" y2="1">
      <stop offset="0" stop-color="#0B2545"/>
      <stop offset="1" stop-color="#00B3A6"/>
    </linearGradient>
  </defs>
  <rect width="120" height="120" fill="none"/>
  <g transform="translate(10,8)">
    <path d="M50 4c-14 0-28 8-34 20v26c0 22 18 36 34 40 16-4 34-18 34-40V24C78 12 64 4 50 4z"
          fill="url(#g1)"/>
    <g transform="translate(10,18)" fill="#FFFFFF" opacity="0.98">
      <path d="M20 6c-3 0-6 2-8 4l2 2c1-1 3-2 6-2 4 0 7 3 7 7 0 4-3 7-7 7-3 0-5-1-6-2l-2 2c2 2 5 4 8 4 6 0 11-5 11-11S26 6 20 6z"/>
      <g transform="translate(2,22)" stroke="#00B3A6" stroke-width="1.8" stroke-linecap="round" stroke-linejoin="round" fill="none">
        <path d="M0 6 L8 6 M18 6 L26 6 M9 0 L9 12 M17 0 L17 12"/>
      </g>
    </g>
  </g>
</svg>